<svg width="132" height="24" viewBox="0 0 132 24" fill="none" xmlns="http://www.w3.org/2000/svg">
<g clip-path="url(#clip0_10_332)">
<path d="M15.402 21V14.034H17.735L18.084 11.326H15.402V9.598C15.402 8.814 15.62 8.279 16.744 8.279H18.178V5.857C17.4838 5.78334 16.7861 5.74762 16.088 5.75C14.021 5.75 12.606 7.012 12.606 9.33V11.326H10.268V14.034H12.606V21H4C3.73478 21 3.48043 20.8946 3.29289 20.7071C3.10536 20.5196 3 20.2652 3 20V4C3 3.73478 3.10536 3.48043 3.29289 3.29289C3.48043 3.10536 3.73478 3 4 3H20C20.2652 3 20.5196 3.10536 20.7071 3.29289C20.8946 3.48043 21 3.73478 21 4V20C21 20.2652 20.8946 20.5196 20.7071 20.7071C20.5196 20.8946 20.2652 21 20 21H15.402Z" fill="#2C2D35"/>
</g>
<g clip-path="url(#clip1_10_332)">
<path d="M66 2C68.717 2 69.056 2.01 70.122 2.06C71.187 2.11 71.912 2.277 72.55 2.525C73.21 2.779 73.766 3.123 74.322 3.678C74.8305 4.1779 75.224 4.78259 75.475 5.45C75.722 6.087 75.89 6.813 75.94 7.878C75.987 8.944 76 9.283 76 12C76 14.717 75.99 15.056 75.94 16.122C75.89 17.187 75.722 17.912 75.475 18.55C75.2247 19.2178 74.8311 19.8226 74.322 20.322C73.822 20.8303 73.2173 21.2238 72.55 21.475C71.913 21.722 71.187 21.89 70.122 21.94C69.056 21.987 68.717 22 66 22C63.283 22 62.944 21.99 61.878 21.94C60.813 21.89 60.088 21.722 59.45 21.475C58.7823 21.2245 58.1775 20.8309 57.678 20.322C57.1694 19.8222 56.7759 19.2175 56.525 18.55C56.277 17.913 56.11 17.187 56.06 16.122C56.013 15.056 56 14.717 56 12C56 9.283 56.01 8.944 56.06 7.878C56.11 6.812 56.277 6.088 56.525 5.45C56.7752 4.78218 57.1688 4.17732 57.678 3.678C58.1777 3.16923 58.7824 2.77573 59.45 2.525C60.088 2.277 60.812 2.11 61.878 2.06C62.944 2.013 63.283 2 66 2ZM66 7C64.6739 7 63.4021 7.52678 62.4645 8.46447C61.5268 9.40215 61 10.6739 61 12C61 13.3261 61.5268 14.5979 62.4645 15.5355C63.4021 16.4732 64.6739 17 66 17C67.3261 17 68.5979 16.4732 69.5355 15.5355C70.4732 14.5979 71 13.3261 71 12C71 10.6739 70.4732 9.40215 69.5355 8.46447C68.5979 7.52678 67.3261 7 66 7ZM72.5 6.75C72.5 6.41848 72.3683 6.10054 72.1339 5.86612C71.8995 5.6317 71.5815 5.5 71.25 5.5C70.9185 5.5 70.6005 5.6317 70.3661 5.86612C70.1317 6.10054 70 6.41848 70 6.75C70 7.08152 70.1317 7.39946 70.3661 7.63388C70.6005 7.8683 70.9185 8 71.25 8C71.5815 8 71.8995 7.8683 72.1339 7.63388C72.3683 7.39946 72.5 7.08152 72.5 6.75ZM66 9C66.7956 9 67.5587 9.31607 68.1213 9.87868C68.6839 10.4413 69 11.2044 69 12C69 12.7956 68.6839 13.5587 68.1213 14.1213C67.5587 14.6839 66.7956 15 66 15C65.2044 15 64.4413 14.6839 63.8787 14.1213C63.3161 13.5587 63 12.7956 63 12C63 11.2044 63.3161 10.4413 63.8787 9.87868C64.4413 9.31607 65.2044 9 66 9Z" fill="#2C2D35"/>
</g>
<g clip-path="url(#clip2_10_332)">
<path d="M129.543 6.498C130 8.28 130 12 130 12C130 12 130 15.72 129.543 17.502C129.289 18.487 128.546 19.262 127.605 19.524C125.896 20 120 20 120 20C120 20 114.107 20 112.395 19.524C111.45 19.258 110.708 18.484 110.457 17.502C110 15.72 110 12 110 12C110 12 110 8.28 110.457 6.498C110.711 5.513 111.454 4.738 112.395 4.476C114.107 4 120 4 120 4C120 4 125.896 4 127.605 4.476C128.55 4.742 129.292 5.516 129.543 6.498ZM118 15.5L124 12L118 8.5V15.5Z" fill="#2C2D35"/>
</g>
<defs>
<clipPath id="clip0_10_332">
<rect width="24" height="24" fill="white"/>
</clipPath>
<clipPath id="clip1_10_332">
<rect width="24" height="24" fill="white" transform="translate(54)"/>
</clipPath>
<clipPath id="clip2_10_332">
<rect width="24" height="24" fill="white" transform="translate(108)"/>
</clipPath>
</defs>
</svg>
